<svg clip-rule="evenodd" fill-rule="evenodd" height="512" stroke-linejoin="round" stroke-miterlimit="2" viewBox="0 0 64 64" width="512" xmlns="http://www.w3.org/2000/svg"><g id="Exp-1.-O"><g fill="#2d74ff"><path d="m11.648 19.185-8 13c-.19.308-.198.696-.021 1.012s.511.512.873.512h9c.552 0 1-.448 1-1s-.448-1-1-1h-7.21s7.062-11.476 7.062-11.476c.289-.47.142-1.086-.328-1.376-.47-.289-1.086-.142-1.376.328z"/><path d="m12.5 27.709v14c0 .552.448 1 1 1s1-.448 1-1v-14c0-.552-.448-1-1-1s-1 .448-1 1z"/><path d="m57.648 19.185-8 13c-.19.308-.198.696-.021 1.012s.511.512.873.512h9c.552 0 1-.448 1-1s-.448-1-1-1h-7.21s7.062-11.476 7.062-11.476c.289-.47.142-1.086-.328-1.376-.47-.289-1.086-.142-1.376.328z"/><path d="m58.5 27.709v14c0 .552.448 1 1 1s1-.448 1-1v-14c0-.552-.448-1-1-1s-1 .448-1 1z"/></g><path d="m21.866 34.331c-.761-.279-1.574-.816-2.299-1.561-.952-.978-1.546-2.095-1.662-3.029-.062-.504.011-.947.304-1.232.248-.241.608-.321 1.018-.295.501.031 1.067.224 1.641.546.146.082.325.085.474.008s.25-.225.268-.392c.773-7.36 5.557-12.376 11.39-12.376 2.467 0 4.464.596 5.974 1.843 2.298 1.9 3.452 5.271 3.523 10.18.002.163.084.315.219.407.134.091.306.111.458.054.533-.203 1.043-.299 1.483-.265.359.027.667.14.871.376.267.31.302.757.196 1.254-.196.92-.884 1.982-1.917 2.874-.989.854-2.086 1.371-3.003 1.467-.15.016-.285.098-.367.225-1.041 1.6-2.232 3.31-3.062 5.933-.872 2.757-.964 5.542-.932 7.048 0 .004 0 .008.001.012.006.144-.051.283-.156.382-.1.094-.235.142-.372.133-4.696-.7-10.335-5.508-12.957-11.232-.115-.251-.412-.362-.663-.247s-.361.412-.246.663c2.769 6.047 8.773 11.075 13.721 11.806.007.001.013.002.02.003.433.046.865-.099 1.183-.397.315-.297.486-.716.469-1.148-.031-1.438.054-4.092.886-6.722.763-2.412 1.852-4.015 2.821-5.497 1.03-.169 2.23-.74 3.31-1.672 1.224-1.056 2.01-2.333 2.242-3.422.18-.844.037-1.59-.417-2.116-.578-.67-1.616-.884-2.805-.599-.175-4.927-1.498-8.311-3.869-10.27-1.674-1.383-3.877-2.073-6.611-2.073-6.107 0-11.236 5.015-12.298 12.568-.646-.268-1.268-.388-1.806-.353-.553.036-1.028.23-1.384.578-.498.485-.706 1.216-.599 2.072.137 1.106.81 2.445 1.938 3.603.841.863 1.789 1.478 2.671 1.802.259.095.546-.039.641-.298s-.038-.546-.297-.641z" fill="#738bab"/><path d="m32 26.209c-.577 0-1.118.267-1.551.743-.566.623-.949 1.624-.949 2.757 0 1.134.383 2.134.949 2.757.433.476.974.743 1.551.743s1.118-.267 1.551-.743c.566-.623.949-1.623.949-2.757 0-1.133-.383-2.134-.949-2.757-.433-.476-.974-.743-1.551-.743zm0 1c.306 0 .582.163.811.416.426.469.689 1.231.689 2.084s-.263 1.615-.689 2.085c-.229.252-.505.415-.811.415s-.582-.163-.811-.415c-.426-.47-.689-1.232-.689-2.085s.263-1.615.689-2.084c.229-.253.505-.416.811-.416z" fill="#738bab"/><path d="m28.962 22.841c.181.662.192 1.785-.797 2.454-.229.154-.289.465-.135.694.155.229.466.289.694.134 1.437-.97 1.465-2.584 1.203-3.545-.073-.267-.348-.424-.614-.351-.266.072-.423.347-.351.614z" fill="#738bab"/><path d="m34.073 22.578c-.262.961-.234 2.575 1.203 3.545.228.155.539.095.694-.134.154-.229.094-.54-.135-.694-.989-.669-.978-1.792-.797-2.454.072-.267-.085-.542-.351-.614-.266-.073-.541.084-.614.351z" fill="#738bab"/></g></svg>